<?xml version="1.0" encoding="UTF-8" standalone="no"?>
<!-- Created with Inkscape (http://www.inkscape.org/) -->

<svg
   version="1.1"
   id="svg1"
   width="311.9982"
   height="262.48364"
   viewBox="0 0 311.99819 262.48364"
   sodipodi:docname="3.svg"
   inkscape:version="1.4 (e7c3feb100, 2024-10-09)"
   xmlns:inkscape="http://www.inkscape.org/namespaces/inkscape"
   xmlns:sodipodi="http://sodipodi.sourceforge.net/DTD/sodipodi-0.dtd"
   xmlns="http://www.w3.org/2000/svg"
   xmlns:svg="http://www.w3.org/2000/svg">
  <defs
     id="defs1">
    <inkscape:path-effect
       effect="bspline"
       id="path-effect6"
       is_visible="true"
       lpeversion="1.3"
       weight="33.333333"
       steps="2"
       helper_size="0"
       apply_no_weight="true"
       apply_with_weight="true"
       only_selected="false"
       uniform="false" />
    <inkscape:path-effect
       effect="bspline"
       id="path-effect5"
       is_visible="true"
       lpeversion="1.3"
       weight="33.333333"
       steps="2"
       helper_size="0"
       apply_no_weight="true"
       apply_with_weight="true"
       only_selected="false"
       uniform="false" />
    <inkscape:path-effect
       effect="bspline"
       id="path-effect4"
       is_visible="true"
       lpeversion="1.3"
       weight="33.333333"
       steps="2"
       helper_size="0"
       apply_no_weight="true"
       apply_with_weight="true"
       only_selected="false"
       uniform="false" />
    <inkscape:path-effect
       effect="bspline"
       id="path-effect3"
       is_visible="true"
       lpeversion="1.3"
       weight="33.333333"
       steps="2"
       helper_size="0"
       apply_no_weight="true"
       apply_with_weight="true"
       only_selected="false"
       uniform="false" />
    <inkscape:path-effect
       effect="bspline"
       id="path-effect2"
       is_visible="true"
       lpeversion="1.3"
       weight="33.333333"
       steps="2"
       helper_size="0"
       apply_no_weight="true"
       apply_with_weight="true"
       only_selected="false"
       uniform="false" />
    <inkscape:path-effect
       effect="bspline"
       id="path-effect1"
       is_visible="true"
       lpeversion="1.3"
       weight="33.333333"
       steps="2"
       helper_size="0"
       apply_no_weight="true"
       apply_with_weight="true"
       only_selected="false"
       uniform="false" />
  </defs>
  <sodipodi:namedview
     id="namedview1"
     pagecolor="#ffffff"
     bordercolor="#000000"
     borderopacity="0.25"
     inkscape:showpageshadow="2"
     inkscape:pageopacity="0.0"
     inkscape:pagecheckerboard="0"
     inkscape:deskcolor="#d1d1d1"
     showgrid="false"
     inkscape:zoom="2"
     inkscape:cx="167"
     inkscape:cy="148.5"
     inkscape:window-width="1920"
     inkscape:window-height="1011"
     inkscape:window-x="0"
     inkscape:window-y="0"
     inkscape:window-maximized="1"
     inkscape:current-layer="layer1" />
  <g
     inkscape:groupmode="layer"
     id="layer1"
     inkscape:label="Layer 1"
     transform="translate(160.45209,18.872069)">
    <g
       id="g1">
      <path
         id="path3"
         style="opacity:1;fill:#ececec;fill-opacity:1;stroke:none;stroke-width:0.347717;stroke-linecap:round;stroke-opacity:1"
         d="M 132.51861 5.7275404 C 132.51861 5.7275404 130.9619 6.0508091 130.919 6.0830091 C 130.87607 6.1152091 128.85747 6.6728916 128.80377 6.7158216 C 128.7501 6.7587536 124.00689 8.5400404 124.00689 8.5400404 L 118.98346 10.836915 L 117.19049 11.856447 L 111.8565 15.549806 L 110.37604 16.600587 L 103.87213 21.666994 L 100.09283 24.725587 L 91.82916 31.208009 L 87.342832 34.88965 L 80.022519 40.760744 L 76.758848 43.411134 L 68.452207 50.098634 L 65.608457 52.416994 L 60.401426 56.752931 L 53.919004 61.991212 L 51.471738 64.018556 L 43.315488 70.598634 L 35.973691 76.598634 L 31.358457 80.323244 L 24.32916 86.053712 L 20.733457 89.059572 L 16.139707 92.836915 L 9.2920506 98.428712 L 6.0713475 100.85449 L 1.9600194 104.38574 L -3.9540431 109.12012 L -11.584902 115.23731 L -21.190371 122.97559 L -28.627871 128.87988 L -35.315371 134.1377 L -41.315371 138.85059 L -47.883731 143.64746 L -48.461856 144.08692 L -48.473574 144.07715 L -52.799746 146.93262 L -57.823184 149.84082 L -62.727481 152.21387 L -64.864199 152.99707 L -70.873965 155.03613 L -76.582949 156.49512 L -78.375918 157.04199 L -78.289981 157.44043 L -76.122012 160.28418 L -75.885684 160.12402 L -72.784121 160.00488 L -68.95209 159.66113 L -64.573184 159.00684 L -60.924746 158.00879 L -55.106387 155.80957 L -52.477481 154.53223 L -48.205996 152.35254 L -45.340762 150.62402 L -44.834902 150.31348 L -44.631777 150.3877 L -44.588809 150.52832 L -44.782168 150.78613 L -47.293887 153.39356 L -50.276309 156.34473 L -53.143496 159.40332 L -55.676699 162.71973 L -58.315371 166.78809 L -61.247012 172.05762 L -63.252871 175.86817 L -63.596621 176.50293 L -63.35834 176.95215 L -61.270449 179.54199 L -61.006777 178.98731 L -58.125918 173.5166 L -55.48334 168.99707 L -52.629824 165.40332 L -49.805606 162.59277 L -46.446231 159.80176 L -43.676699 157.62207 L -39.705996 154.56348 L -36.967715 152.41699 L -36.971621 152.41504 L -30.79584 147.6416 L -24.936465 143.03613 L -14.622012 134.65332 L -6.0790431 127.83887 L 1.9717381 121.15137 L 3.7744725 119.6377 L 14.389707 110.95606 L 18.780332 107.23145 L 29.491269 98.504884 L 35.565488 93.610353 L 46.245176 85.184572 L 49.487363 82.522462 L 59.286191 74.676759 L 69.20416 66.766603 L 75.95416 61.325197 L 80.473691 57.612306 L 89.467832 50.141603 L 97.592832 43.250978 L 104.91314 37.079103 L 110.23541 32.4209 L 116.86822 26.88379 L 120.13189 24.028322 L 122.64361 21.881837 L 126.98932 17.448244 L 129.08307 14.926759 L 131.10064 11.782228 L 132.47564 8.7431654 L 133.26861 6.5537123 C 133.26861 6.5537123 133.30175 6.0605216 133.25885 6.0283216 C 133.21592 5.9961226 132.96783 5.7607435 132.96783 5.7607435 L 132.51861 5.7275404 z " />
      <path
         style="opacity:1;fill:#800000;fill-opacity:1;stroke:none;stroke-width:0.347717;stroke-linecap:round;stroke-opacity:1"
         d="m -78.858447,156.60044 2.684708,3.50086 0.236254,0.10739 2.878007,-0.23626 5.927835,-0.55842 4.639175,-0.98797 4.896908,-1.54639 6.16409,-2.77062 3.69416,-2.08333 3.54381,-1.99743 -0.12886,0.25774 -0.90207,1.03092 -3.0713,3.07131 -3.78007,3.78007 -2.51289,3.0713 -3.39347,5.04725 -3.543813,6.25 -2.018901,3.97337 0.171822,0.47251 2.341065,2.85653 3.479377,4.38144 2.9854,3.73712 3.20017,3.67268 3.78007,3.99484 2.4055,1.91151 1.48196,0.73025 1.48196,0.57989 2.0189,0.34364 2.10481,0.10739 1.33161,0.3866 0.32217,0.32217 0.23625,0.68728 -0.94502,2.46993 -2.14776,2.87801 -2.9854,3.35051 -1.20275,0.88059 -1.2457,0.66581 -1.86856,0.36512 -2.79209,0.23625 -3.30756,0.0859 -1.63231,-0.21477 -0.55842,-0.32217 -0.21477,-0.51546 0.12886,-0.55842 0.66581,-3.32904 -0.0215,-2.10481 -0.42955,-2.62028 -0.73024,-2.62027 -1.20275,-2.14777 -1.8256,-2.5988 -1.20275,-1.50343 -6.121133,-6.78694 -2.491409,-2.06186 -0.902062,-0.62285 -2.384021,-1.41753 -1.632302,-0.27921 -1.782646,0.3866 -1.481959,1.03093 -2.212199,2.06185 -2.706186,3.13574 -2.684708,3.09279 -0.64433,0.81615 -2.985395,2.77062 -2.169244,1.69673 -2.083333,1.26718 -1.761169,0.9665 -3.006873,1.31014 -3.114261,1.09536 -3.28608,0.98797 -3.54382,1.07388 -1.80412,0.73024 -1.439,0.73024 -1.3531,1.13832 -1.22422,1.65378 -0.90206,1.97595 -0.32217,2.81357 0.49399,3.54381 1.0524,2.7921 0.88059,1.61083 0.10738,0.77319 -0.2792,0.51546 -0.75172,0.32217 h -1.46048 l -3.7586,-0.30069 -3.73711,-0.0215 -4.59622,-0.0429 -1.48196,-0.17182 -2.0189,-0.49399 -1.54639,-0.8591 -1.03093,-1.07389 -0.79467,-1.48196 -0.21478,-1.37457 -0.043,-2.83505 0.25773,-4.96134 0.68729,-6.48625 0.62285,-3.22165 0.17182,-0.3866 0.49399,0.0644 1.20275,0.0859 1.56787,0.45103 2.29811,1.31014 1.41752,0.73024 1.86856,0.70877 1.26718,0.19329 0.98797,0.1933 1.71822,-0.32216 1.65378,-0.62285 1.41752,-0.73024 1.63231,-1.22423 7.15206,-8.05413 5.88488,-6.37886 3.500856,-2.89949 3.694158,-2.29811 3.028351,-1.41752 4.359965,-2.0189 3.414949,-1.50344 1.310137,-0.83763 0.987973,-1.22422 0.279209,-1.05241 -0.04296,-1.00945 -0.687285,-2.53436 -1.439004,-3.04983 -4.467353,-7.71048 -4.531787,-6.87286 -4.424399,-5.4768 -3.071306,-2.66323 -2.770614,-1.73969 -2.96392,-1.18127 -1.89004,-0.79468 -0.75171,-0.6658 -0.34365,-0.60138 -0.10738,-0.70876 0.88058,-2.81357 0.88058,-1.76117 2.19073,-3.20017 1.31013,-0.83763 1.56787,-0.42956 2.276634,-0.27921 3.58677,-0.1933 1.224226,0.30069 c 0,0 0.515464,0.3866 0.708763,0.49399 0.193299,0.10739 0.536942,0.66581 0.536942,0.79467 0,0.12887 0.236254,1.26718 0.236254,1.26718 l 0.150344,4.48884 0.493986,2.40549 2.899485,5.82045 5.519759,8.18299 z"
         id="path2" />
      <path
         id="path1"
         style="fill:#000000;stroke-linecap:round"
         d="m 133.04686,5.6855686 c -0.11527,-0.004 -0.26427,0.016756 -0.46261,0.06412 -0.79333,0.1894564 -2.37789,0.7964636 -3.71092,1.3928247 -0.66653,0.2981806 -1.27621,0.5985191 -2.57255,1.506103 -1.29633,0.9075839 -3.28276,2.4249237 -6.72042,5.1680567 -6.87534,5.486269 -19.54943,15.872085 -28.781345,23.376656 -9.231903,7.504572 -15.021254,12.127398 -18.720668,15.033245 -3.699414,2.905849 -5.30901,4.094067 -6.857995,5.049078 -1.548984,0.955011 -3.037055,1.677211 -4.538495,2.224245 -1.50144,0.547035 -3.017743,0.919705 -3.805008,1.124947 -0.393632,0.102621 -0.604647,0.162844 -0.726359,0.203046 -0.08374,0.02766 -0.100602,0.04068 -0.12902,0.05628 -0.904213,-1.221887 -1.737228,-2.369673 -2.386505,-3.310007 -1.183504,-1.714044 -1.802297,-2.785309 -2.12918,-3.527302 -0.326882,-0.741993 -0.363222,-1.152228 -0.380643,-1.564523 -0.01742,-0.412295 -0.01354,-0.817709 -0.03564,-1.174105 -0.02209,-0.356397 -0.06891,-0.662946 -0.195311,-0.884141 -0.126399,-0.221195 -0.331764,-0.340265 -0.570252,-0.39683 -0.238488,-0.05656 -0.510852,-0.05662 -0.792651,-0.04488 -0.563599,0.02348 -1.172204,0.09356 -1.640901,0.163861 -0.468697,0.0703 -0.825929,0.154798 -1.277365,0.713155 -0.451435,0.558357 -1.011592,1.581806 -1.191114,2.25203 -0.08976,0.335112 -0.08277,0.585543 0.01354,0.782974 0.09631,0.197431 0.276069,0.331475 0.509663,0.445277 0.467188,0.227602 1.159899,0.389532 1.945273,0.839969 0.785374,0.450438 1.667786,1.191198 2.621022,2.365309 0.953236,1.174111 1.979197,2.782678 2.923968,4.357297 0.94477,1.574618 1.802986,3.120304 1.904643,4.035273 0.05083,0.457485 -0.07631,0.755597 -0.337875,1.005968 -0.261561,0.250372 -0.663308,0.44834 -1.152622,0.669696 -0.978628,0.442712 -2.286513,0.978622 -3.318155,1.529614 -1.031642,0.550992 -1.785385,1.115226 -2.546889,1.818153 -0.761504,0.702928 -1.53407,1.546112 -2.340173,2.480724 -0.806102,0.934612 -1.646641,1.961394 -2.23824,2.576191 -0.591599,0.614798 -0.92998,0.817226 -1.322272,0.990295 -0.392291,0.17307 -0.827707,0.31066 -1.27095,0.322024 -0.443243,0.01136 -0.899414,-0.10364 -1.394979,-0.334136 -0.495565,-0.230496 -1.031458,-0.580913 -1.496199,-0.771575 -0.464741,-0.190662 -0.850406,-0.214884 -1.037147,-0.226556 -0.04669,-0.0029 -0.08472,-0.0055 -0.126881,0.0043 -0.04217,0.0098 -0.08276,0.04156 -0.105496,0.08407 -0.04548,0.08503 -0.06037,0.211306 -0.10122,0.468075 -0.0817,0.51354 -0.246139,1.541433 -0.351418,2.641024 -0.10528,1.099592 -0.152516,2.267826 -0.12902,3.007931 0.0235,0.740105 0.123574,1.065136 0.386346,1.42346 0.262773,0.358324 0.702597,0.769536 1.638762,0.935436 0.936164,0.1659 2.360343,0.0943 3.453591,0.117553 0.546624,0.01163 1.012754,0.0486 1.388564,0.07053 0.37581,0.02193 0.658707,0.0323 0.855378,-0.01211 0.19667,-0.04441 0.304746,-0.160197 0.325757,-0.298514 0.02101,-0.138317 -0.02921,-0.287049 -0.09552,-0.43174 -0.132633,-0.28938 -0.33897,-0.562974 -0.523206,-1.115684 -0.184236,-0.55271 -0.344526,-1.387904 -0.27586,-2.09743 0.06867,-0.709526 0.365156,-1.303552 0.754159,-1.749759 0.389003,-0.446207 0.868196,-0.744015 1.515445,-0.986732 0.647249,-0.242718 1.464452,-0.429943 2.459213,-0.745927 0.994761,-0.315984 2.165728,-0.76044 3.175592,-1.33583 1.009864,-0.575389 1.855961,-1.27906 2.664504,-2.134477 0.808543,-0.855417 1.577899,-1.860279 2.333757,-2.685907 0.377929,-0.412814 0.75049,-0.774773 1.177571,-0.948973 0.427082,-0.174199 0.910847,-0.169903 1.546809,0.168136 1.271926,0.676079 3.122159,2.707106 4.169969,4.01105 1.047811,1.303944 1.29702,1.872475 1.470538,2.543419 0.173519,0.670945 0.267464,1.437134 0.244496,1.999826 -0.02297,0.562693 -0.160747,0.927822 -0.232378,1.238224 -0.03581,0.155201 -0.06001,0.306491 0.01354,0.43744 0.07355,0.130948 0.234516,0.215758 0.517504,0.257904 0.565976,0.08429 1.658854,0.01147 2.408602,-0.07053 0.749748,-0.082 1.168493,-0.181175 1.679393,-0.597026 0.510899,-0.41585 1.119143,-1.140181 1.611676,-1.843801 0.246266,-0.351809 0.462979,-0.699345 0.597339,-1.002406 0.134361,-0.30306 0.194962,-0.568808 0.08197,-0.759464 -0.112985,-0.190656 -0.368646,-0.25424 -0.664344,-0.291389 -0.295698,-0.03715 -0.644058,-0.04309 -0.960875,-0.07766 -0.633633,-0.06912 -1.153235,-0.249521 -1.893951,-0.80506 -0.740716,-0.55554 -1.694354,-1.484076 -4.482895,-4.949336 -0.312262,-0.388042 -0.709596,-0.896394 -1.062095,-1.340817 0.75753,-1.462671 1.514868,-2.919691 2.290989,-4.023874 0.790158,-1.124155 1.600858,-1.889017 2.894743,-2.938112 1.293886,-1.049095 3.069214,-2.379109 5.835818,-4.550369 2.766603,-2.171258 6.523437,-5.183115 10.515451,-8.463102 3.992013,-3.279989 8.217676,-6.826665 13.130771,-10.782814 4.913096,-3.956147 10.515016,-8.322597 15.464526,-12.361586 4.94951,-4.03899 9.24471,-7.750581 12.0922,-10.177951 2.84749,-2.427369 4.24776,-3.571812 5.31261,-4.578154 1.06485,-1.006342 1.79372,-1.8724757 2.32236,-2.7065681 0.52865,-0.834092 0.85646,-1.6333932 1.03287,-2.1508633 0.0441,-0.1293674 0.0784,-0.2412651 0.0941,-0.339835 0.0158,-0.09857 0.0143,-0.1886426 -0.0356,-0.259329 -0.0499,-0.070686 -0.13849,-0.1035781 -0.25377,-0.1075788 z m -0.006,0.1268147 c 0.0948,0.00329 0.13597,0.026341 0.15611,0.054858 0.0201,0.028518 0.0269,0.080067 0.0135,0.1638617 -0.0134,0.083794 -0.0464,0.1931949 -0.0898,0.3205991 -0.17373,0.5096163 -0.49755,1.2998238 -1.01933,2.123078 -0.52177,0.8232539 -1.24162,1.6826239 -2.30097,2.6837699 -1.05935,1.001146 -2.46018,2.143814 -5.30833,4.571743 -2.84815,2.427929 -7.14219,6.1403 -12.09006,10.17795 -4.94787,4.037649 -10.55025,8.402345 -15.46453,12.359449 -4.914283,3.957105 -9.139506,7.505579 -13.13077,10.784952 -3.991265,3.279373 -7.75048,6.290427 -10.516164,8.460964 -2.765685,2.170538 -4.538633,3.500734 -5.835819,4.552506 -1.297186,1.051771 -2.119455,1.827597 -2.917553,2.963048 -0.774753,1.102237 -1.525818,2.541335 -2.274593,3.986827 -0.256258,-0.323423 -0.494003,-0.621772 -0.765564,-0.967497 0.621435,-1.17386 1.240877,-2.34654 1.838351,-3.369139 0.605917,-1.037046 1.187862,-1.921149 1.873278,-2.734354 0.685418,-0.813203 1.478121,-1.557896 2.087836,-2.160125 0.73787,-0.728809 1.466043,-1.514507 1.472673,-1.541725 1.960017,-1.59106 3.917601,-3.179313 13.296856,-10.795638 9.500488,-7.71477 26.516259,-21.534666 43.533059,-35.353524 0.0278,-0.02191 0.0323,-0.0623 0.01,-0.08977 -0.0108,-0.0127 -0.0262,-0.02063 -0.0428,-0.02209 -0.017,-0.0018 -0.0339,0.0034 -0.047,0.01425 -17.0168,13.818858 -34.032568,27.636619 -43.533054,35.351387 -4.485025,3.652399 -8.987198,7.28537 -13.470745,10.938877 -0.790536,0.464168 -1.585154,0.928512 -2.482736,1.394962 -0.935229,0.486014 -1.98285,0.973361 -3.017347,1.333692 -1.034497,0.360332 -2.05753,0.593644 -3.085778,0.738803 -1.015983,0.143428 -2.036838,0.202108 -3.060828,0.259329 -0.256196,-0.342042 -0.524825,-0.694255 -0.770554,-1.025917 0.02191,-0.01082 0.0252,-0.01761 0.09267,-0.0399 0.116161,-0.03837 0.326675,-0.09715 0.719231,-0.199484 0.785113,-0.204682 2.304481,-0.579142 3.814275,-1.129221 1.509796,-0.550079 3.007111,-1.277253 4.56273,-2.236356 1.555621,-0.959101 3.168444,-2.149702 6.868688,-5.056203 3.700244,-2.9065 9.490544,-7.528381 18.722807,-15.033245 9.232261,-7.504864 21.905471,-17.892382 28.779201,-23.377369 3.43687,-2.742494 5.42506,-4.2593706 6.71686,-5.1637819 1.2918,-0.9044112 1.885,-1.1947896 2.54903,-1.4918541 1.32804,-0.5941289 2.91887,-1.2009466 3.68953,-1.3849878 0.19267,-0.04601 0.33287,-0.065985 0.42769,-0.062695 z M 49.938305,50.106346 c 0.128051,0.0053 0.248061,0.01847 0.356407,0.04417 0.216691,0.05139 0.383385,0.148258 0.490417,0.33556 0.107032,0.187302 0.155813,0.480283 0.177491,0.829996 0.02168,0.349714 0.01804,0.75559 0.03564,1.171967 0.01759,0.416378 0.05808,0.854556 0.390623,1.609407 0.332547,0.754851 0.956232,1.832051 2.14201,3.549388 0.655236,0.948964 1.497395,2.107751 2.410028,3.340642 4.05e-4,0.0036 0.0011,0.0072 0.0021,0.01069 0.0023,6.11e-4 0.0047,0.0011 0.0071,0.0014 0.265896,0.359152 0.55788,0.742142 0.836132,1.113548 0.0029,0.0052 0.0065,0.01003 0.01069,0.01425 2.158111,2.880204 3.928602,5.181033 6.51727,8.419643 2.790451,3.467633 3.751047,4.405782 4.50428,4.970709 0.753234,0.564927 1.306453,0.759061 1.956678,0.829996 0.325112,0.03547 0.674504,0.04043 0.95945,0.07623 0.284946,0.0358 0.496489,0.105649 0.570252,0.230119 0.07376,0.124469 0.03985,0.355506 -0.08839,0.64476 -0.12824,0.289255 -0.343426,0.629706 -0.58736,0.978183 -0.487867,0.696954 -1.093167,1.419134 -1.586014,1.820291 -0.492847,0.401157 -0.869623,0.48927 -1.613814,0.570666 -0.74419,0.0814 -1.845374,0.14964 -2.376526,0.07053 -0.265575,-0.03955 -0.37804,-0.113159 -0.424125,-0.19521 -0.04609,-0.08205 -0.03631,-0.197991 -0.0021,-0.346247 0.06843,-0.296512 0.212935,-0.68063 0.236655,-1.261735 0.02372,-0.581105 -0.07143,-1.353926 -0.24806,-2.036872 -0.176622,-0.682945 -0.441025,-1.281419 -1.49406,-2.591865 -1.053035,-1.310447 -2.890027,-3.341931 -4.209175,-4.04311 -0.659574,-0.35059 -1.19593,-0.361438 -1.65587,-0.173836 -0.459939,0.187602 -0.842476,0.564463 -1.223191,0.98032 -0.76143,0.831715 -1.529501,1.835152 -2.331618,2.68377 -0.802117,0.848619 -1.636943,1.54469 -2.634566,2.113104 -0.997622,0.568415 -2.163392,1.010153 -3.152782,1.32443 -0.989389,0.314278 -1.804958,0.500582 -2.464915,0.748065 -0.659957,0.247483 -1.161397,0.557479 -1.566055,1.021642 -0.404657,0.464164 -0.714127,1.084695 -0.785523,1.822427 -0.0714,0.737732 0.09445,1.582396 0.283701,2.150151 0.189251,0.567755 0.40263,0.856235 0.52677,1.127084 0.06207,0.135424 0.100251,0.26688 0.08625,0.359071 -0.014,0.09219 -0.06368,0.156493 -0.228814,0.193784 -0.16514,0.03729 -0.447808,0.03106 -0.821876,0.0093 -0.374067,-0.02183 -0.842352,-0.05597 -1.392841,-0.06768 -1.100977,-0.02343 -2.525696,0.04334 -3.433631,-0.117553 -0.907934,-0.160897 -1.30744,-0.542889 -1.558214,-0.884853 -0.250775,-0.341963 -0.338208,-0.623153 -0.361398,-1.353641 -0.02319,-0.730488 0.02421,-1.897613 0.12902,-2.992257 0.104806,-1.094643 0.26758,-2.118936 0.349279,-2.632475 0.04085,-0.25677 0.06605,-0.387029 0.08768,-0.427465 0.01081,-0.02022 0.01061,-0.0191 0.02352,-0.02209 0.01291,-0.003 0.04313,-0.0029 0.08981,0 0.186742,0.01167 0.550886,0.03447 0.996516,0.217295 0.44563,0.182821 0.981603,0.533074 1.489784,0.769438 0.508182,0.236364 0.9863,0.355373 1.45343,0.343397 0.46713,-0.01198 0.918765,-0.154924 1.320134,-0.331998 0.401368,-0.177074 0.762594,-0.395001 1.361478,-1.017368 0.598884,-0.622368 1.439384,-1.649069 2.243942,-2.581891 0.804559,-0.932821 1.57227,-1.770962 2.328055,-2.468612 0.755786,-0.697649 1.497274,-1.252792 2.519802,-1.798917 1.022527,-0.546124 2.328132,-1.083157 3.310314,-1.527476 0.491091,-0.22216 0.905617,-0.421287 1.189689,-0.693207 0.284072,-0.271919 0.431286,-0.623512 0.377079,-1.111409 -0.108415,-0.975795 -0.975747,-2.509185 -1.92175,-4.085857 -0.946003,-1.576673 -1.975203,-3.189441 -2.936086,-4.372971 -0.960883,-1.183531 -1.854005,-1.936714 -2.65595,-2.396656 -0.801945,-0.459941 -1.507785,-0.626195 -1.950975,-0.842107 -0.221595,-0.107955 -0.374589,-0.225395 -0.453351,-0.386856 -0.07876,-0.161461 -0.08887,-0.376145 -0.0036,-0.694631 0.170615,-0.636971 0.729856,-1.666952 1.165453,-2.205721 0.435598,-0.538769 0.732514,-0.595668 1.19753,-0.665421 0.465016,-0.06975 1.069782,-0.141372 1.626644,-0.164575 0.139216,-0.0058 0.275403,-0.0081 0.403454,-0.0028 z m 18.380655,8.442441 c -0.322549,0.344231 -0.662462,0.702309 -1.111992,1.14632 -0.607867,0.600404 -1.401722,1.347165 -2.093539,2.167961 -0.691816,0.820798 -1.278906,1.711696 -1.886822,2.752165 -0.591124,1.011734 -1.202776,2.166746 -1.81554,3.324256 -1.434107,-1.827468 -2.979486,-3.842248 -4.450819,-5.804268 0.99567,-0.05586 1.992216,-0.116086 2.986696,-0.256479 1.035285,-0.146153 2.068417,-0.379064 3.111439,-0.742365 1.043021,-0.363301 2.095001,-0.855827 3.033742,-1.343666 0.802134,-0.416848 1.520617,-0.830594 2.226835,-1.243924 z"
         transform="matrix(2.7400156,0,0,2.7414501,-231.91273,-10.011506)"
         sodipodi:nodetypes="ssssssssssscsssssssssssssssssssssssssscsssssssssssssssssssssssssssssssssscsscsssssssssscssssscsssssssssccssscsccccscsssccsssssssssssssssssscccccssssssssssscsssssssssssssssscsssssssscssssssssssssssssssssscsssccssscsss" />
    </g>
    <g
       id="g2">
      <path
         id="path6"
         style="fill:#ececec;fill-opacity:1;stroke:none;stroke-width:0.347717;stroke-linecap:round;stroke-opacity:1"
         d="m -132.15875,5.7275404 c 0,0 1.55671,0.3232687 1.59961,0.3554687 0.0429,0.0322 2.06153,0.5898825 2.11523,0.6328125 0.0537,0.042932 4.79688,1.8242188 4.79688,1.8242188 l 5.02343,2.2968746 1.79297,1.019532 5.33399,3.693359 1.48046,1.050781 6.50391,5.066407 3.779301,3.058593 8.26367,6.482422 4.486328,3.681641 7.320313,5.871094 3.263671,2.65039 8.306641,6.6875 2.84375,2.31836 5.207031,4.335937 6.482422,5.238281 2.447266,2.027344 8.15625,6.580078 7.341797,6 4.615234,3.72461 7.029297,5.730468 3.595703,3.00586 4.59375,3.777343 6.8476566,5.591797 3.2207031,2.425778 4.1113281,3.53125 5.9140625,4.73438 7.6308587,6.11719 9.605469,7.73828 7.4375,5.90429 6.6875,5.25782 6,4.71289 6.56836,4.79687 0.578125,0.43946 0.01172,-0.01 4.326172,2.85547 5.023438,2.9082 4.904297,2.37305 2.136718,0.7832 6.009766,2.03906 5.708984,1.45899 1.792969,0.54687 -0.08594,0.39844 -2.167969,2.84375 -0.236328,-0.16016 -3.101563,-0.11914 -3.832031,-0.34375 -4.378906,-0.65429 -3.648438,-0.99805 -5.818359,-2.19922 -2.628906,-1.27734 -4.271485,-2.17969 -2.865234,-1.72852 -0.50586,-0.31054 -0.203125,0.0742 -0.04297,0.14062 0.193359,0.25781 2.511719,2.60743 2.982422,2.95117 2.867187,3.05859 2.533203,3.31641 2.638672,4.06836 2.931641,5.26953 2.005859,3.81055 0.34375,0.63476 -0.238281,0.44922 -2.087891,2.58984 -0.263672,-0.55468 -2.880859,-5.47071 -2.642578,-4.51953 -2.853516,-3.59375 -2.824218,-2.81055 -3.359375,-2.79101 -2.769532,-2.17969 -3.970703,-3.05859 -2.738281,-2.14649 0.0039,-0.002 -6.175781,-4.77344 -5.859375,-4.60547 -10.314453,-8.38281 -8.5429687,-6.81445 -8.0507812,-6.6875 -1.8027344,-1.51367 -10.6152347,-8.68164 -4.390625,-3.72461 -10.710937,-8.726566 -6.074219,-4.894531 -10.679688,-8.425781 -3.242187,-2.66211 -9.798828,-7.845703 -9.917969,-7.910156 -6.75,-5.441406 -4.519531,-3.712891 -8.994141,-7.470703 -8.125,-6.890625 -7.32031,-6.171875 -5.32227,-4.658203 -6.63281,-5.53711 -3.26367,-2.855468 -2.51172,-2.146485 -4.34571,-4.433593 -2.09375,-2.521485 -2.01757,-3.144531 -1.375,-3.0390626 -0.79297,-2.1894531 c 0,0 -0.0331,-0.4931907 0.01,-0.5253907 0.0429,-0.032199 0.29102,-0.2675781 0.29102,-0.2675781 z" />
      <path
         style="fill:#000080;fill-opacity:1;stroke:none;stroke-width:0.347717;stroke-linecap:round;stroke-opacity:1"
         d="m 79.218308,156.60044 -2.684708,3.50086 -0.236254,0.10739 -2.878007,-0.23626 -5.927835,-0.55842 -4.639175,-0.98797 -4.896908,-1.54639 -6.16409,-2.77062 -3.69416,-2.08333 -3.54381,-1.99743 0.12886,0.25774 0.90207,1.03092 3.0713,3.07131 3.78007,3.78007 2.51289,3.0713 3.39347,5.04725 3.543813,6.25 2.018901,3.97337 -0.171822,0.47251 -2.341065,2.85653 -3.479377,4.38144 -2.9854,3.73712 -3.20017,3.67268 -3.78007,3.99484 -2.4055,1.91151 -1.48196,0.73025 -1.48196,0.57989 -2.0189,0.34364 -2.10481,0.10739 -1.33161,0.3866 -0.32217,0.32217 -0.23625,0.68728 0.94502,2.46993 2.14776,2.87801 2.9854,3.35051 1.20275,0.88059 1.2457,0.66581 1.86856,0.36512 2.79209,0.23625 3.30756,0.0859 1.63231,-0.21477 0.55842,-0.32217 0.21477,-0.51546 -0.12886,-0.55842 -0.66581,-3.32904 0.0215,-2.10481 0.42955,-2.62028 0.73024,-2.62027 1.20275,-2.14777 1.8256,-2.5988 1.20275,-1.50343 6.121133,-6.78694 2.491409,-2.06186 0.902062,-0.62285 2.384021,-1.41753 1.632302,-0.27921 1.782646,0.3866 1.481959,1.03093 2.212199,2.06185 2.706186,3.13574 2.684708,3.09279 0.64433,0.81615 2.985395,2.77062 2.169244,1.69673 2.083333,1.26718 1.761169,0.9665 3.006873,1.31014 3.11426,1.09536 3.28608,0.98797 3.54382,1.07388 1.80412,0.73024 1.439,0.73024 1.3531,1.13832 1.22422,1.65378 0.90206,1.97595 0.32217,2.81357 -0.49399,3.54381 -1.0524,2.7921 -0.88059,1.61083 -0.10738,0.77319 0.2792,0.51546 0.75172,0.32217 h 1.46048 l 3.7586,-0.30069 3.73711,-0.0215 4.59622,-0.0429 1.48196,-0.17182 2.0189,-0.49399 1.54639,-0.8591 1.03093,-1.07389 0.79467,-1.48196 0.21478,-1.37457 0.043,-2.83505 -0.25773,-4.96134 -0.68729,-6.48625 -0.62285,-3.22165 -0.17182,-0.3866 -0.49399,0.0644 -1.20275,0.0859 -1.56787,0.45103 -2.29811,1.31014 -1.41752,0.73024 -1.86856,0.70877 -1.26718,0.19329 -0.98797,0.1933 -1.71822,-0.32216 -1.65378,-0.62285 -1.41752,-0.73024 -1.63231,-1.22423 -7.15206,-8.05413 -5.88488,-6.37886 -3.500855,-2.89949 -3.694158,-2.29811 -3.028351,-1.41752 -4.359965,-2.0189 -3.414949,-1.50344 -1.310137,-0.83763 -0.987973,-1.22422 -0.279209,-1.05241 0.04296,-1.00945 0.687285,-2.53436 1.439004,-3.04983 4.467353,-7.71048 4.531787,-6.87286 4.424399,-5.4768 3.071306,-2.66323 2.770613,-1.73969 2.96392,-1.18127 1.89004,-0.79468 0.75171,-0.6658 0.34365,-0.60138 0.10738,-0.70876 -0.88058,-2.81357 -0.88058,-1.76117 -2.19073,-3.20017 -1.31013,-0.83763 -1.56787,-0.42956 -2.276633,-0.27921 -3.58677,-0.1933 -1.224226,0.30069 c 0,0 -0.515464,0.3866 -0.708763,0.49399 -0.193299,0.10739 -0.536942,0.66581 -0.536942,0.79467 0,0.12887 -0.236254,1.26718 -0.236254,1.26718 l -0.150344,4.48884 -0.493986,2.40549 -2.899485,5.82045 -5.519759,8.18299 z"
         id="path5" />
      <path
         id="path4"
         style="fill:#000000;stroke-width:2.74073;stroke-linecap:round"
         d="m -132.27788,5.5751966 c 0.31584,-0.010966 0.7241,0.045936 1.26756,0.1757818 2.17373,0.5193853 6.51545,2.1834652 10.16798,3.8183594 1.8263,0.8174472 3.49683,1.6408102 7.04882,4.1289062 3.55197,2.488096 8.99482,6.647807 18.414059,14.16797 18.838539,15.040332 53.565743,43.512529 78.861334,64.085936 25.2955589,20.57341 41.158471,33.24666 51.294923,41.21289 10.136452,7.96624 14.54677,11.22368 18.791013,13.8418 4.24424,2.61811 8.321578,4.59799 12.435547,6.09765 4.113969,1.49967 8.268663,2.52133 10.425781,3.08399 1.078558,0.28133 1.656743,0.44643 1.990235,0.55664 0.229449,0.0758 0.275652,0.11152 0.353517,0.15429 2.477558,-3.34974 4.760032,-6.49634 6.539061,-9.07422 3.24282,-4.69897 4.938322,-7.63579 5.833987,-9.66992 0.895661,-2.03414 0.995234,-3.15878 1.042967,-4.28907 0.04773,-1.13028 0.0371,-2.2417 0.09766,-3.21875 0.06053,-0.97704 0.188814,-1.81743 0.535155,-2.42382 0.346335,-0.6064 0.909038,-0.93282 1.562499,-1.08789 0.653461,-0.15506 1.399743,-0.15522 2.171876,-0.12304 1.54427,0.0644 3.211857,0.25649 4.496096,0.44922 1.28424,0.19272 2.26306,0.42437 3.5,1.95508 1.23694,1.5307 2.77178,4.33644 3.26367,6.17382 0.24595,0.9187 0.22679,1.60524 -0.0371,2.14649 -0.26389,0.54124 -0.75643,0.90872 -1.39648,1.2207 -1.2801,0.62396 -3.17814,1.06788 -5.33008,2.30274 -2.15194,1.23485 -4.569763,3.26561 -7.181644,6.48437 -2.611882,3.21877 -5.423031,7.62858 -8.011718,11.94531 -2.588685,4.31674 -4.94021,8.55416 -5.218752,11.0625 -0.139275,1.25418 0.209091,2.07144 0.925783,2.75782 0.716681,0.68638 1.817474,1.2291 3.158202,1.83593 2.681456,1.21368 6.265081,2.68285 9.091797,4.19336 2.826715,1.51052 4.891982,3.05734 6.978522,4.98438 2.08653,1.92704 4.20337,4.23859 6.41211,6.80078 2.20873,2.56219 4.51182,5.37706 6.13281,7.0625 1.62099,1.68544 2.54816,2.24038 3.62305,2.71484 1.07488,0.47447 2.26793,0.85166 3.48242,0.88282 1.21449,0.0311 2.46441,-0.28413 3.82226,-0.91602 1.35786,-0.63189 2.82621,-1.59254 4.09961,-2.11523 1.2734,-0.5227 2.33013,-0.5891 2.8418,-0.6211 0.12793,-0.008 0.23213,-0.0151 0.34766,0.0118 0.11554,0.0269 0.22676,0.11394 0.28906,0.23048 0.12461,0.2331 0.16541,0.57928 0.27734,1.2832 0.22386,1.40784 0.67443,4.22576 0.96289,7.24023 0.28847,3.01448 0.4179,6.21714 0.35352,8.2461 -0.0644,2.02896 -0.3386,2.92001 -1.05859,3.90234 -0.72001,0.98233 -1.92513,2.10965 -4.49024,2.56445 -2.5651,0.45481 -6.46737,0.25852 -9.46289,0.32227 -1.49776,0.0319 -2.77496,0.13323 -3.80469,0.19335 -1.02972,0.0601 -1.80487,0.0885 -2.34375,-0.0332 -0.53888,-0.12174 -0.83501,-0.43917 -0.89258,-0.81836 -0.0576,-0.37919 0.08,-0.78693 0.26173,-1.18359 0.36342,-0.79332 0.92878,-1.54337 1.43359,-3.05859 0.50481,-1.51523 0.94401,-3.80487 0.75586,-5.75 -0.18815,-1.94513 -1.00053,-3.57362 -2.0664,-4.79688 -1.06588,-1.22325 -2.37888,-2.03968 -4.15235,-2.70508 -1.77347,-0.66539 -4.01262,-1.17866 -6.73828,-2.04492 -2.725664,-0.86625 -5.934132,-2.08471 -8.701175,-3.66211 -2.767043,-1.5774 -5.085362,-3.50648 -7.300783,-5.85156 -2.21542,-2.34508 -4.323467,-5.09986 -6.39453,-7.36328 -1.035532,-1.13171 -2.056355,-2.124 -3.226563,-2.60156 -1.170211,-0.47756 -2.495735,-0.46578 -4.238281,0.46093 -3.485097,1.85344 -8.554764,7.4214 -11.42578,10.9961 -2.871018,3.57469 -3.553855,5.13329 -4.029297,6.97265 -0.475445,1.83937 -0.732856,3.93983 -0.669923,5.48243 0.06294,1.54259 0.440449,2.54357 0.636719,3.39453 0.09812,0.42547 0.164429,0.84023 -0.0371,1.19922 -0.201529,0.35898 -0.642578,0.59149 -1.417969,0.70703 -1.550783,0.23107 -4.545286,0.0314 -6.599607,-0.19336 -2.054322,-0.2248 -3.20169,-0.49668 -4.601563,-1.63671 -1.399872,-1.14004 -3.06647,-3.12575 -4.416018,-5.05469 -0.674773,-0.96447 -1.26857,-1.91722 -1.636718,-2.74805 -0.368151,-0.83082 -0.534199,-1.55936 -0.224599,-2.08203 0.309581,-0.52268 1.010096,-0.69699 1.820313,-0.79883 0.810217,-0.10185 1.764729,-0.11813 2.632812,-0.2129 1.736165,-0.18949 3.159882,-0.68405 5.189456,-2.20703 2.029573,-1.52299 4.642556,-4.06852 12.283202,-13.56836 0.855603,-1.0638 1.944304,-2.45742 2.910157,-3.67578 -2.075644,-4.00984 -4.150762,-8.00419 -6.277346,-11.03125 -2.165045,-3.08182 -4.386376,-5.17865 -7.931641,-8.05469 C 43.678828,157.53127 38.814402,153.8851 31.233864,147.9327 23.653328,141.9803 13.359545,133.72345 2.4213641,124.73153 -8.5168177,115.73959 -20.0952,106.01656 -33.557157,95.170971 -47.019117,84.325391 -62.368465,72.354987 -75.9302,61.2823 -89.491935,50.20961 -101.26085,40.034469 -109.06302,33.379955 c -7.80216,-6.654511 -11.63893,-9.791944 -14.55663,-12.550781 -2.91771,-2.758836 -4.91482,-5.133298 -6.3633,-7.419921 -1.44851,-2.286622 -2.34672,-4.477866 -2.83008,-5.8964844 -0.12084,-0.3546543 -0.21482,-0.6614163 -0.25784,-0.9316407 -0.0433,-0.2702248 -0.0392,-0.5171543 0.0975,-0.7109376 0.13673,-0.1937821 0.37947,-0.2839541 0.69534,-0.2949219 z m 0.0164,0.3476562 c -0.25976,0.00902 -0.37256,0.072213 -0.42775,0.1503904 -0.0551,0.078181 -0.0737,0.2194997 -0.037,0.4492187 0.0367,0.2297171 0.12714,0.5296342 0.24606,0.8789065 0.47602,1.3970876 1.36329,3.5634016 2.79298,5.8203126 1.42966,2.256909 3.40206,4.612829 6.30469,7.357421 2.90264,2.744592 6.74093,5.877159 14.54491,12.533205 7.80402,6.656047 19.569761,16.833326 33.127002,27.902342 13.557241,11.069014 28.90785,23.03461 42.373054,33.882813 13.465212,10.848208 25.042389,20.576168 35.9785146,29.566408 10.9361284,8.99024 21.2364364,17.24489 28.8144534,23.19531 7.57802,5.95042 12.435925,9.59709 15.990235,12.48047 3.55431,2.88338 5.80734,5.01026 7.994141,8.12305 2.122835,3.02172 4.180765,6.96694 6.23242,10.92968 0.702151,-0.88664 1.353576,-1.70455 2.097657,-2.65234 -1.702741,-3.21808 -3.400022,-6.43292 -5.03711,-9.23633 -1.660222,-2.84301 -3.254761,-5.26673 -5.132811,-7.49609 -1.878056,-2.22936 -4.050075,-4.2709 -5.720703,-5.92188 -2.021776,-1.99799 -4.016981,-4.15194 -4.035147,-4.22656 C 38.473639,145.29737 33.109828,140.94325 7.410523,120.06348 -18.620962,98.913821 -65.24444,61.027266 -111.87074,23.143556 c -0.0762,-0.06007 -0.0885,-0.170792 -0.0274,-0.2461 0.0296,-0.03482 0.0718,-0.05656 0.11727,-0.06056 0.0466,-0.0049 0.0929,0.0093 0.12878,0.03907 46.626303,37.883707 93.249773,75.764409 119.2812526,96.914064 12.2890384,10.01287 24.6250624,19.97247 36.9100514,29.98838 2.166081,1.2725 4.343347,2.54547 6.802735,3.82422 2.562542,1.33238 5.43304,2.66842 8.267578,3.65625 2.834538,0.98783 5.637664,1.62745 8.45508,2.02539 2.783809,0.3932 5.580968,0.55407 8.386716,0.71094 0.701981,-0.93769 1.438029,-1.90327 2.11133,-2.8125 -0.06003,-0.0297 -0.06905,-0.0483 -0.253917,-0.10938 -0.318283,-0.10519 -0.895094,-0.26634 -1.970704,-0.54688 -2.151222,-0.56113 -6.314314,-1.58769 -10.451173,-3.0957 -4.136865,-1.50802 -8.239531,-3.50153 -12.501951,-6.13086 -4.262426,-2.62933 -8.681586,-5.8933 -18.820313,-13.86133 C 24.425869,125.47054 8.5603569,112.79988 -16.736188,92.225669 -42.032727,71.651459 -76.75752,43.174597 -95.591648,28.137779 -105.00873,20.619368 -110.4564,16.460927 -113.99595,13.981528 c -3.53955,-2.479398 -5.16493,-3.275456 -6.98438,-4.0898431 -3.63885,-1.6287747 -7.99775,-3.2923352 -10.10937,-3.7968749 -0.52792,-0.1261342 -0.91207,-0.1808946 -1.17188,-0.1718753 z M 95.440856,127.35254 c -0.350861,0.0145 -0.679691,0.0506 -0.97656,0.12109 -0.593737,0.14088 -1.050481,0.40644 -1.343751,0.91992 -0.293269,0.51348 -0.42693,1.31667 -0.486328,2.27539 -0.0594,0.95873 -0.04943,2.07142 -0.09765,3.21289 -0.0482,1.14148 -0.15914,2.34273 -1.070313,4.41211 -0.911184,2.06939 -2.620091,5.02248 -5.869141,9.73047 -1.795357,2.60154 -4.102886,5.7783 -6.603514,9.15821 -0.0011,0.01 -0.003,0.0197 -0.0058,0.0293 -0.0063,0.002 -0.01288,0.003 -0.01945,0.004 -0.72856,0.9846 -1.5286,2.03455 -2.291015,3.05274 -0.0079,0.0143 -0.01781,0.0275 -0.02929,0.0391 -5.913258,7.89594 -10.764431,14.20355 -17.857421,23.08203 -7.64588,9.50635 -10.277928,12.07823 -12.341798,13.62695 -2.063873,1.54872 -3.579701,2.08093 -5.361328,2.2754 -0.890812,0.0972 -1.848152,0.11083 -2.628908,0.20898 -0.780756,0.0981 -1.360388,0.28963 -1.562499,0.63086 -0.202104,0.34122 -0.10919,0.9746 0.24219,1.76757 0.351379,0.79298 0.940992,1.72631 1.609375,2.68164 1.336763,1.91067 2.995295,3.89049 4.345703,4.99024 1.350409,1.09975 2.382781,1.34131 4.421876,1.56445 2.039092,0.22316 5.056353,0.41023 6.511718,0.19336 0.72768,-0.10843 1.035836,-0.31022 1.162109,-0.53516 0.126288,-0.22494 0.09949,-0.54278 0.0058,-0.94922 -0.187499,-0.81287 -0.583445,-1.86591 -0.648438,-3.45898 -0.06499,-1.59307 0.195719,-3.71172 0.679688,-5.58399 0.483947,-1.87226 1.208416,-3.51294 4.093748,-7.10546 2.885332,-3.59253 7.918719,-9.16174 11.533205,-11.08399 1.807243,-0.96112 3.276867,-0.99086 4.53711,-0.47656 1.26024,0.5143 2.308397,1.54745 3.351562,2.6875 2.08633,2.2801 4.190857,5.03097 6.38867,7.35742 2.197813,2.32645 4.485249,4.23469 7.218752,5.79297 2.7335,1.55828 5.927728,2.76928 8.638672,3.63086 2.71094,0.86157 4.94561,1.37232 6.75391,2.05078 1.80829,0.67846 3.18224,1.5283 4.29101,2.80078 1.10877,1.27248 1.95672,2.97364 2.15235,4.99609 0.19563,2.02246 -0.2588,4.33806 -0.77735,5.89453 -0.51855,1.55648 -1.10321,2.34733 -1.44336,3.08985 -0.17007,0.37126 -0.27469,0.73164 -0.23632,0.98437 0.0384,0.25274 0.17448,0.42902 0.62695,0.53125 0.45249,0.10223 1.227,0.0851 2.25195,0.0255 1.02495,-0.0598 2.30806,-0.15344 3.81641,-0.18554 3.01669,-0.0642 6.92045,0.11881 9.4082,-0.32227 2.48775,-0.44109 3.58241,-1.4883 4.26953,-2.42578 0.68713,-0.93747 0.9267,-1.70834 0.99024,-3.71094 0.0635,-2.00259 -0.0663,-5.20221 -0.35352,-8.20312 -0.28717,-3.00091 -0.73317,-5.80896 -0.95703,-7.2168 -0.11193,-0.70392 -0.18098,-1.06102 -0.24024,-1.17187 -0.0296,-0.0554 -0.0291,-0.0524 -0.0644,-0.0606 -0.0354,-0.008 -0.11817,-0.008 -0.24608,0 -0.51167,0.032 -1.50944,0.0945 -2.73047,0.5957 -1.22103,0.5012 -2.68961,1.4614 -4.08203,2.10938 -1.39243,0.64798 -2.70248,0.97423 -3.98242,0.9414 -1.27994,-0.0328 -2.51743,-0.42471 -3.61719,-0.91015 -1.09975,-0.48544 -2.08952,-1.08288 -3.73047,-2.78907 -1.64095,-1.70619 -3.94393,-4.52084 -6.14844,-7.07812 -2.2045,-2.55728 -4.30804,-4.85501 -6.3789,-6.76758 -2.070868,-1.91257 -4.102556,-3.43447 -6.904299,-4.93164 -2.80174,-1.49717 -6.379118,-2.96942 -9.070312,-4.1875 -1.345597,-0.60904 -2.481405,-1.15494 -3.259767,-1.90039 -0.778361,-0.74545 -1.18173,-1.70933 -1.033202,-3.04687 0.297059,-2.6751 2.673562,-6.87881 5.265625,-11.20118 2.592063,-4.32237 5.412087,-8.74369 8.044922,-11.98828 2.632834,-3.24459 5.080002,-5.3094 7.277343,-6.57031 2.19734,-1.26091 4.13136,-1.71668 5.3457,-2.3086 0.60718,-0.29595 1.02638,-0.61791 1.24219,-1.06054 0.21581,-0.44264 0.24351,-1.03119 0.01,-1.9043 -0.46749,-1.74622 -1.99982,-4.56986 -3.19336,-6.04687 -1.19355,-1.47701 -2.0071,-1.633 -3.28125,-1.82422 -1.274156,-0.19122 -2.931224,-0.38757 -4.457034,-0.45118 -0.381454,-0.0159 -0.754609,-0.0222 -1.105471,-0.008 z m -50.363281,23.14453 c 0.883789,0.94369 1.815156,1.92535 3.046875,3.14258 1.665565,1.64598 3.84074,3.69319 5.73633,5.94336 1.895586,2.25017 3.504222,4.69253 5.169921,7.54492 1.619689,2.77362 3.295625,5.94003 4.974608,9.11328 3.929476,-5.00991 8.163839,-10.53333 12.195314,-15.91211 -2.728151,-0.15314 -5.458703,-0.31824 -8.183594,-0.70312 -2.836697,-0.40067 -5.667495,-1.03919 -8.525391,-2.03516 -2.857894,-0.99597 -5.740336,-2.34621 -8.312501,-3.68359 -2.197859,-1.14277 -4.166514,-2.27703 -6.101562,-3.41016 z"
         sodipodi:nodetypes="ssssssssssscsssssssssssssssssssssssssscsssssssssssssssssssssssssssssssssscsscsssssssssscssssscsssssssssccssscsccccscsssccsssssssssssssssssscccccssssssssssscsssssssssssssssscsssssssscssssssssssssssssssssscsssccssscsss" />
    </g>
  </g>
</svg>
